<svg width="40" height="40" viewBox="0 0 40 40" fill="none" xmlns="http://www.w3.org/2000/svg">
<rect width="40" height="40" rx="4" fill="#161616"/>
<path d="M31 8H15C14.7348 8 14.4804 8.10536 14.2929 8.29289C14.1054 8.48043 14 8.73478 14 9V14H9C8.73478 14 8.48043 14.1054 8.29289 14.2929C8.10536 14.4804 8 14.7348 8 15V31C8 31.2652 8.10536 31.5196 8.29289 31.7071C8.48043 31.8946 8.73478 32 9 32H25C25.2652 32 25.5196 31.8946 25.7071 31.7071C25.8946 31.5196 26 31.2652 26 31V26H31C31.2652 26 31.5196 25.8946 31.7071 25.7071C31.8946 25.5196 32 25.2652 32 25V9C32 8.73478 31.8946 8.48043 31.7071 8.29289C31.5196 8.10536 31.2652 8 31 8ZM24 30H10V16H24V30ZM30 24H26V15C26 14.7348 25.8946 14.4804 25.7071 14.2929C25.5196 14.1054 25.2652 14 25 14H16V10H30V24Z" fill="#F1F1F1"/>
</svg>
