<svg width="91" height="41" viewBox="0 0 91 41" fill="none" xmlns="http://www.w3.org/2000/svg">
<path d="M39.972 24.5042H42.6808V33.0864H39.972V24.5042ZM36.2474 23.3191H46.4055V25.7154H36.2474V23.3191ZM52.5277 33.2948C51.373 33.2948 50.3572 33.0821 49.4803 32.6567C48.6121 32.2312 47.9349 31.6365 47.4487 30.8725C46.9712 30.1085 46.7325 29.2186 46.7325 28.2028C46.7325 27.187 46.9712 26.2971 47.4487 25.533C47.9349 24.769 48.6121 24.1743 49.4803 23.7489C50.3572 23.3234 51.373 23.1107 52.5277 23.1107C53.6911 23.1107 54.7069 23.3234 55.5751 23.7489C56.4433 24.1743 57.1205 24.769 57.6067 25.533C58.0929 26.2971 58.336 27.187 58.336 28.2028C58.336 29.2186 58.0929 30.1085 57.6067 30.8725C57.1205 31.6365 56.4433 32.2312 55.5751 32.6567C54.7069 33.0821 53.6911 33.2948 52.5277 33.2948ZM52.5277 30.8855C53.1615 30.8855 53.7085 30.777 54.1686 30.5599C54.6288 30.3429 54.9804 30.0347 55.2235 29.6353C55.4753 29.2359 55.6012 28.7584 55.6012 28.2028C55.6012 27.6471 55.4753 27.1696 55.2235 26.7702C54.9804 26.3708 54.6288 26.0626 54.1686 25.8456C53.7085 25.6285 53.1615 25.52 52.5277 25.52C51.9026 25.52 51.36 25.6285 50.8998 25.8456C50.4397 26.0626 50.0837 26.3708 49.832 26.7702C49.5802 27.1696 49.4543 27.6471 49.4543 28.2028C49.4543 28.7584 49.5802 29.2359 49.832 29.6353C50.0837 30.0347 50.4397 30.3429 50.8998 30.5599C51.36 30.777 51.9026 30.8855 52.5277 30.8855ZM68.7785 31.1981L67.945 31.3674V23.3191H70.5627V33.0864H67.1637L61.5247 25.0512L62.3451 24.8819V33.0864H59.7275V23.3191H63.2177L68.7785 31.1981Z" fill="url(#paint0_linear_295_307)"/>
<path d="M51.455 6.74303V16.6841H48.8438V7.72388L49.4271 7.79015L45.5832 16.6841H42.7997L38.9426 7.81666L39.539 7.75039V16.6841H36.9278V6.74303H41.1693L44.7349 15.2791H43.6745L47.2135 6.74303H51.455ZM58.776 16.8962C57.6007 16.8962 56.5669 16.6797 55.6744 16.2467C54.7907 15.8137 54.1015 15.2084 53.6066 14.4308C53.1206 13.6532 52.8776 12.7474 52.8776 11.7136C52.8776 10.6797 53.1206 9.77394 53.6066 8.99633C54.1015 8.21872 54.7907 7.61342 55.6744 7.18043C56.5669 6.74745 57.6007 6.53095 58.776 6.53095C59.9601 6.53095 60.994 6.74745 61.8776 7.18043C62.7613 7.61342 63.4505 8.21872 63.9453 8.99633C64.4402 9.77394 64.6876 10.6797 64.6876 11.7136C64.6876 12.7474 64.4402 13.6532 63.9453 14.4308C63.4505 15.2084 62.7613 15.8137 61.8776 16.2467C60.994 16.6797 59.9601 16.8962 58.776 16.8962ZM58.776 14.444C59.4211 14.444 59.9778 14.3336 60.4461 14.1127C60.9144 13.8918 61.2723 13.5781 61.5197 13.1716C61.776 12.7651 61.9041 12.2791 61.9041 11.7136C61.9041 11.148 61.776 10.662 61.5197 10.2555C61.2723 9.84905 60.9144 9.53536 60.4461 9.31445C59.9778 9.09353 59.4211 8.98308 58.776 8.98308C58.1398 8.98308 57.5875 9.09353 57.1191 9.31445C56.6508 9.53536 56.2885 9.84905 56.0323 10.2555C55.776 10.662 55.6479 11.148 55.6479 11.7136C55.6479 12.2791 55.776 12.7651 56.0323 13.1716C56.2885 13.5781 56.6508 13.8918 57.1191 14.1127C57.5875 14.3336 58.1398 14.444 58.776 14.444ZM71.5647 16.8962C70.3895 16.8962 69.3556 16.6797 68.4631 16.2467C67.5795 15.8137 66.8902 15.2084 66.3954 14.4308C65.9094 13.6532 65.6664 12.7474 65.6664 11.7136C65.6664 10.6797 65.9094 9.77394 66.3954 8.99633C66.8902 8.21872 67.5795 7.61342 68.4631 7.18043C69.3556 6.74745 70.3895 6.53095 71.5647 6.53095C72.7488 6.53095 73.7827 6.74745 74.6664 7.18043C75.55 7.61342 76.2393 8.21872 76.7341 8.99633C77.2289 9.77394 77.4764 10.6797 77.4764 11.7136C77.4764 12.7474 77.2289 13.6532 76.7341 14.4308C76.2393 15.2084 75.55 15.8137 74.6664 16.2467C73.7827 16.6797 72.7488 16.8962 71.5647 16.8962ZM71.5647 14.444C72.2098 14.444 72.7665 14.3336 73.2348 14.1127C73.7032 13.8918 74.0611 13.5781 74.3085 13.1716C74.5647 12.7651 74.6929 12.2791 74.6929 11.7136C74.6929 11.148 74.5647 10.662 74.3085 10.2555C74.0611 9.84905 73.7032 9.53536 73.2348 9.31445C72.7665 9.09353 72.2098 8.98308 71.5647 8.98308C70.9285 8.98308 70.3762 9.09353 69.9079 9.31445C69.4396 9.53536 69.0773 9.84905 68.821 10.2555C68.5648 10.662 68.4366 11.148 68.4366 11.7136C68.4366 12.2791 68.5648 12.7651 68.821 13.1716C69.0773 13.5781 69.4396 13.8918 69.9079 14.1127C70.3762 14.3336 70.9285 14.444 71.5647 14.444ZM88.1046 14.7621L87.2563 14.9345V6.74303H89.9205V16.6841H86.461L80.7217 8.50591L81.5567 8.3336V16.6841H78.8925V6.74303H82.4448L88.1046 14.7621Z" fill="#F1F1F1"/>
<path d="M15.7715 40.0001L31.2517 30.1212V25.2442L15.7715 35.0091M15.7715 40.0001V35.0091M15.7715 40.0001L0.293274 30.246V25.2026L15.7715 35.0091M12.2282 27.6312L15.7715 25.2804L19.3168 27.6312" stroke="url(#paint1_linear_295_307)" stroke-width="0.177346" stroke-linecap="round"/>
<path fill-rule="evenodd" clip-rule="evenodd" d="M8.29815 19.9561L0.220947 25.0996L15.5555 34.8645V29.6565L8.53921 25.1719L12.4964 22.6017L8.29815 19.9561Z" fill="url(#paint2_linear_295_307)"/>
<path fill-rule="evenodd" clip-rule="evenodd" d="M19.0272 22.5878L23.0057 25.1718L15.9894 29.6564V34.8643L31.3963 25.1718L23.1894 19.9316L19.0272 22.5878Z" fill="url(#paint3_linear_295_307)"/>
<path d="M15.5556 19.5298V14.3219L8.53933 9.83725L15.5556 5.28029V0L0.221069 9.76491L15.5556 19.5298Z" fill="url(#paint4_linear_295_307)"/>
<path d="M15.9895 19.5298V14.3219L23.0058 9.83725L15.9895 5.28029V0L31.3964 9.83725L15.9895 19.5298Z" fill="url(#paint5_linear_295_307)"/>
<path d="M15.7715 24.6656L31.2517 14.7867V9.90971L15.7715 19.6746M15.7715 24.6656V19.6746M15.7715 24.6656L0.293335 14.9116V9.86816L15.7715 19.6746M12.2282 12.2967L15.7715 9.94589L19.3168 12.2967" stroke="url(#paint6_linear_295_307)" stroke-width="0.177346" stroke-linecap="round"/>
<defs>
<linearGradient id="paint0_linear_295_307" x1="54" y1="20.0864" x2="54" y2="36.0864" gradientUnits="userSpaceOnUse">
<stop stop-color="#47BCFC"/>
<stop offset="1" stop-color="#078FD1"/>
</linearGradient>
<linearGradient id="paint1_linear_295_307" x1="15.7725" y1="25.2026" x2="15.7725" y2="40.0001" gradientUnits="userSpaceOnUse">
<stop stop-color="#47BCFC"/>
<stop offset="1" stop-color="#078FD1"/>
</linearGradient>
<linearGradient id="paint2_linear_295_307" x1="7.88821" y1="19.9561" x2="7.88821" y2="34.8645" gradientUnits="userSpaceOnUse">
<stop stop-color="#47BCFC"/>
<stop offset="1" stop-color="#078FD1"/>
</linearGradient>
<linearGradient id="paint3_linear_295_307" x1="23.6929" y1="19.9316" x2="23.6929" y2="34.8643" gradientUnits="userSpaceOnUse">
<stop stop-color="#47BCFC"/>
<stop offset="1" stop-color="#078FD1"/>
</linearGradient>
<linearGradient id="paint4_linear_295_307" x1="7.88834" y1="0" x2="7.88834" y2="19.5298" gradientUnits="userSpaceOnUse">
<stop stop-color="#47BCFC"/>
<stop offset="1" stop-color="#078FD1"/>
</linearGradient>
<linearGradient id="paint5_linear_295_307" x1="23.6929" y1="0" x2="23.6929" y2="19.5298" gradientUnits="userSpaceOnUse">
<stop stop-color="#47BCFC"/>
<stop offset="1" stop-color="#078FD1"/>
</linearGradient>
<linearGradient id="paint6_linear_295_307" x1="15.7725" y1="9.86816" x2="15.7725" y2="24.6656" gradientUnits="userSpaceOnUse">
<stop stop-color="#47BCFC"/>
<stop offset="1" stop-color="#078FD1"/>
</linearGradient>
</defs>
</svg>
