<svg width="40" height="40" viewBox="0 0 40 40" fill="none" xmlns="http://www.w3.org/2000/svg">
<rect width="40" height="40" rx="4" fill="#0A0A0A"/>
<path d="M9.95068 19.3741L12.7092 20.4027C13.8695 20.8353 14.7639 21.7809 15.1315 22.9634L16.3412 26.8557C16.4192 27.2454 16.8868 27.3233 17.1985 27.0895L19.7703 24.9853C20.0041 24.7515 20.3938 24.7515 20.7055 24.9853L25.3036 28.3364C25.6153 28.5702 26.0829 28.4144 26.1609 28.0247L29.5899 11.6587C29.6679 11.269 29.2782 10.8793 28.8885 11.0352L9.95068 18.3609C9.48308 18.5168 9.48308 19.2182 9.95068 19.3741ZM15.8371 20.4287C15.9795 20.2544 16.204 20.1723 16.396 20.0547L25.1477 14.6981C25.4026 14.5706 25.198 15.0308 24.99 15.2256L17.8999 21.868C17.6661 22.1018 17.4323 22.4135 17.4323 22.8032L17.1985 24.6736C17.1985 24.9074 16.8088 24.9853 16.7309 24.6736L15.9409 21.7768C15.8445 21.4236 15.6249 21.0721 15.701 20.714C15.7233 20.609 15.7697 20.5113 15.8371 20.4287Z" fill="#F1F1F1"/>
</svg>
